<svg xmlns="http://www.w3.org/2000/svg" width="268.88140869140625" height="289.18310546875" viewBox="-31.005970001220703 -40.339385986328125 268.88140869140625 289.18310546875"><title>Neo4j Graph Visualization</title><desc>Created using Neo4j (http://www.neo4j.com/)</desc><g class="layer relationships"><g class="relationship" transform="translate(116.52991776386486 -11.339385278917119) rotate(391.60340267698683)"><path class="outline" fill="#A5ABB6" stroke="none" d="M 25 0.5 L 33.49007611683072 0.5 L 33.49007611683072 -0.5 L 25 -0.5 Z M 67.93538861683072 0.5 L 76.42546473366144 0.5 L 76.42546473366144 3.5 L 83.42546473366144 0 L 76.42546473366144 -3.5 L 76.42546473366144 -0.5 L 67.93538861683072 -0.5 Z"/><text text-anchor="middle" pointer-events="none" font-size="8px" fill="#000000" x="50.71273236683072" y="3" font-family="sans-serif">ORIGIN</text></g><g class="relationship" transform="translate(116.52991776386486 -11.339385278917119) rotate(509.826962396501)"><path class="outline" fill="#A5ABB6" stroke="none" d="M 25 0.5 L 26.045103909909805 0.5 L 26.045103909909805 -0.5 L 25 -0.5 Z M 74.71697890990981 0.5 L 75.76208281981961 0.5 L 75.76208281981961 3.5 L 82.76208281981961 0 L 75.76208281981961 -3.5 L 75.76208281981961 -0.5 L 74.71697890990981 -0.5 Z"/><text text-anchor="middle" pointer-events="none" font-size="8px" fill="#000000" x="50.381041409909805" y="3" transform="rotate(180 50.381041409909805 0)" font-family="sans-serif">DESTINA…</text></g><g class="relationship" transform="translate(-2.005969590083557 147.53018171742187) rotate(283.6222603726101)"><path class="outline" fill="#A5ABB6" stroke="none" d="M 25 0.5 L 33.14615867355738 0.5 L 33.14615867355738 -0.5 L 25 -0.5 Z M 67.59147117355738 0.5 L 75.73762984711476 0.5 L 75.73762984711476 3.5 L 82.73762984711476 0 L 75.73762984711476 -3.5 L 75.73762984711476 -0.5 L 67.59147117355738 -0.5 Z"/><text text-anchor="middle" pointer-events="none" font-size="8px" fill="#000000" x="50.36881492355738" y="3" font-family="sans-serif">ORIGIN</text></g><g class="relationship" transform="translate(-2.005969590083557 147.53018171742187) rotate(401.84773877878956)"><path class="outline" fill="#A5ABB6" stroke="none" d="M 25 0.5 L 26.35962821090017 0.5 L 26.35962821090017 -0.5 L 25 -0.5 Z M 75.03150321090017 0.5 L 76.39113142180034 0.5 L 76.39113142180034 3.5 L 83.39113142180034 0 L 76.39113142180034 -3.5 L 76.39113142180034 -0.5 L 75.03150321090017 -0.5 Z"/><text text-anchor="middle" pointer-events="none" font-size="8px" fill="#000000" x="50.69556571090017" y="3" font-family="sans-serif">DESTINA…</text></g></g><g class="layer nodes"><g class="node" transform="translate(208.87543223126448,45.479514397702346)"><circle class="outline" cx="0" cy="0" r="25" fill="#4C8EDA" stroke="#2870c2" stroke-width="2px"/><text text-anchor="middle" pointer-events="none" font-family="sans-serif" dy="1.5625" font-size="25" fill="#FFFFFF"/><text text-anchor="middle" pointer-events="none" x="0" y="5" font-size="10px" fill="#FFFFFF" font-family="sans-serif"> MSN</text></g><g class="node" transform="translate(78.73679396336141,219.84369016951175)"><circle class="outline" cx="0" cy="0" r="25" fill="#4C8EDA" stroke="#2870c2" stroke-width="2px"/><text text-anchor="middle" pointer-events="none" font-family="sans-serif" dy="1.5625" font-size="25" fill="#FFFFFF"/><text text-anchor="middle" pointer-events="none" x="0" y="5" font-size="10px" fill="#FFFFFF" font-family="sans-serif"> GRR</text></g><g class="node" transform="translate(116.52991776386486,-11.339385278917119)"><circle class="outline" cx="0" cy="0" r="25" fill="#ECB5C9" stroke="#da7298" stroke-width="2px"/><text text-anchor="middle" pointer-events="none" font-family="sans-serif" dy="1.5625" font-size="25" fill="#2A2C34"/><text text-anchor="middle" pointer-events="none" x="0" y="5" font-size="10px" fill="#2A2C34" font-family="sans-serif"> 11/30/20…</text></g><g class="node" transform="translate(23.368366665399723,42.82325766429354)"><circle class="outline" cx="0" cy="0" r="25" fill="#4C8EDA" stroke="#2870c2" stroke-width="2px"/><text text-anchor="middle" pointer-events="none" font-family="sans-serif" dy="1.5625" font-size="25" fill="#FFFFFF"/><text text-anchor="middle" pointer-events="none" x="0" y="5" font-size="10px" fill="#FFFFFF" font-family="sans-serif"> ORD</text></g><g class="node" transform="translate(-2.005969590083557,147.53018171742187)"><circle class="outline" cx="0" cy="0" r="25" fill="#ECB5C9" stroke="#da7298" stroke-width="2px"/><text text-anchor="middle" pointer-events="none" font-family="sans-serif" dy="1.5625" font-size="25" fill="#2A2C34"/><text text-anchor="middle" pointer-events="none" x="0" y="5" font-size="10px" fill="#2A2C34" font-family="sans-serif"> 11/17/20…</text></g></g></svg>