<svg xmlns="http://www.w3.org/2000/svg" width="285.6252136230469" height="265.79010009765625" viewBox="-31.789968490600586 -40.72678756713867 285.6252136230469 265.79010009765625"><title>Neo4j Graph Visualization</title><desc>Created using Neo4j (http://www.neo4j.com/)</desc><g class="layer relationships"><g class="relationship" transform="translate(162.23153578325744 196.06333386750129) rotate(243.8011249420938)"><path class="outline" fill="#A5ABB6" stroke="none" d="M 25 0.5 L 36.31911330794784 0.5 L 36.31911330794784 -0.5 L 25 -0.5 Z M 72.09255080794784 0.5 L 83.41166411589568 0.5 L 83.41166411589568 3.5 L 90.41166411589568 0 L 83.41166411589568 -3.5 L 83.41166411589568 -0.5 L 72.09255080794784 -0.5 Z"/><text text-anchor="middle" pointer-events="none" font-size="8px" fill="#000000" x="54.20583205794784" y="3" transform="rotate(180 54.20583205794784 0)" font-family="sans-serif">WROTE</text></g><g class="relationship" transform="translate(224.83523594592913 91.4546263812862) rotate(539.4684010902564)"><path class="outline" fill="#A5ABB6" stroke="none" d="M 25 0.5 L 30.49949002440269 0.5 L 30.49949002440269 -0.5 L 25 -0.5 Z M 76.06199002440269 0.5 L 81.56148004880538 0.5 L 81.56148004880538 3.5 L 88.56148004880538 0 L 81.56148004880538 -3.5 L 81.56148004880538 -0.5 L 76.06199002440269 -0.5 Z"/><text text-anchor="middle" pointer-events="none" font-size="8px" fill="#000000" x="53.28074002440269" y="3" transform="rotate(180 53.28074002440269 0)" font-family="sans-serif">ACTED_IN</text></g><g class="relationship" transform="translate(156.29104693378355 -11.726788755716957) rotate(473.3564068539993)"><path class="outline" fill="#A5ABB6" stroke="none" d="M 25 0.5 L 29.824089753372192 0.5 L 29.824089753372192 -0.5 L 25 -0.5 Z M 76.71471475337219 0.5 L 81.53880450674438 0.5 L 81.53880450674438 3.5 L 88.53880450674438 0 L 81.53880450674438 -3.5 L 81.53880450674438 -0.5 L 76.71471475337219 -0.5 Z"/><text text-anchor="middle" pointer-events="none" font-size="8px" fill="#000000" x="53.26940225337219" y="3" transform="rotate(180 53.26940225337219 0)" font-family="sans-serif">DIRECTED</text></g><g class="relationship" transform="translate(35.57269764176834 5.445116611898742) rotate(408.9913358009054)"><path class="outline" fill="#A5ABB6" stroke="none" d="M 25 0.5 L 31.406226542068417 0.5 L 31.406226542068417 -0.5 L 25 -0.5 Z M 76.96872654206842 0.5 L 83.37495308413683 0.5 L 83.37495308413683 3.5 L 90.37495308413683 0 L 83.37495308413683 -3.5 L 83.37495308413683 -0.5 L 76.96872654206842 -0.5 Z"/><text text-anchor="middle" pointer-events="none" font-size="8px" fill="#000000" x="54.18747654206842" y="3" font-family="sans-serif">ACTED_IN</text></g><g class="relationship" transform="translate(-2.7899689073356737 106.21509447895085) rotate(353.14801224717087)"><path class="outline" fill="#A5ABB6" stroke="none" d="M 25 0.5 L 31.16334490506157 0.5 L 31.16334490506157 -0.5 L 25 -0.5 Z M 76.72584490506156 0.5 L 82.88918981012314 0.5 L 82.88918981012314 3.5 L 89.88918981012314 0 L 82.88918981012314 -3.5 L 82.88918981012314 -0.5 L 76.72584490506156 -0.5 Z"/><text text-anchor="middle" pointer-events="none" font-size="8px" fill="#000000" x="53.94459490506157" y="3" font-family="sans-serif">ACTED_IN</text></g><g class="relationship" transform="translate(54.47102488694016 192.39330499850595) rotate(299.62818536334964)"><path class="outline" fill="#A5ABB6" stroke="none" d="M 25 0.5 L 36.067892478711315 0.5 L 36.067892478711315 -0.5 L 25 -0.5 Z M 71.84132997871131 0.5 L 82.90922245742263 0.5 L 82.90922245742263 3.5 L 89.90922245742263 0 L 82.90922245742263 -3.5 L 82.90922245742263 -0.5 L 71.84132997871131 -0.5 Z"/><text text-anchor="middle" pointer-events="none" font-size="8px" fill="#000000" x="53.954611228711315" y="3" font-family="sans-serif">WROTE</text></g></g><g class="layer nodes"><g class="node" transform="translate(111.27864378045551,92.50825185531261)"><circle class="outline" cx="0" cy="0" r="25" fill="#F79767" stroke="#f36924" stroke-width="2px"/><text text-anchor="middle" pointer-events="none" font-family="sans-serif" dy="1.5625" font-size="25" fill="#FFFFFF"/><text text-anchor="middle" pointer-events="none" font-family="sans-serif" dy="1.5625" font-size="25" fill="#FFFFFF"/><text text-anchor="middle" pointer-events="none" x="0" y="0" font-size="10px" fill="#FFFFFF" font-family="sans-serif"> Captain</text><text text-anchor="middle" pointer-events="none" x="0" y="10" font-size="10px" fill="#FFFFFF" font-family="sans-serif"> Americ…</text></g><g class="node" transform="translate(162.23153578325744,196.06333386750129)"><circle class="outline" cx="0" cy="0" r="25" fill="#57C7E3" stroke="#23b3d7" stroke-width="2px"/><text text-anchor="middle" pointer-events="none" font-family="sans-serif" dy="1.5625" font-size="25" fill="#2A2C34"/><text text-anchor="middle" pointer-events="none" font-family="sans-serif" dy="1.5625" font-size="25" fill="#2A2C34"/><text text-anchor="middle" pointer-events="none" x="0" y="0" font-size="10px" fill="#2A2C34" font-family="sans-serif"> Stephen</text><text text-anchor="middle" pointer-events="none" x="0" y="10" font-size="10px" fill="#2A2C34" font-family="sans-serif"> McFeely</text></g><g class="node" transform="translate(224.83523594592913,91.4546263812862)"><circle class="outline" cx="0" cy="0" r="25" fill="#57C7E3" stroke="#23b3d7" stroke-width="2px"/><text text-anchor="middle" pointer-events="none" font-family="sans-serif" dy="1.5625" font-size="25" fill="#2A2C34"/><text text-anchor="middle" pointer-events="none" font-family="sans-serif" dy="1.5625" font-size="25" fill="#2A2C34"/><text text-anchor="middle" pointer-events="none" font-family="sans-serif" dy="1.5625" font-size="25" fill="#2A2C34"/><text text-anchor="middle" pointer-events="none" x="0" y="-5" font-size="10px" fill="#2A2C34" font-family="sans-serif"> Samuel</text><text text-anchor="middle" pointer-events="none" x="0" y="5" font-size="10px" fill="#2A2C34" font-family="sans-serif"> L.</text><text text-anchor="middle" pointer-events="none" x="0" y="15" font-size="10px" fill="#2A2C34" font-family="sans-serif"> Jackson</text></g><g class="node" transform="translate(156.29104693378355,-11.726788755716957)"><circle class="outline" cx="0" cy="0" r="25" fill="#57C7E3" stroke="#23b3d7" stroke-width="2px"/><text text-anchor="middle" pointer-events="none" font-family="sans-serif" dy="1.5625" font-size="25" fill="#2A2C34"/><text text-anchor="middle" pointer-events="none" font-family="sans-serif" dy="1.5625" font-size="25" fill="#2A2C34"/><text text-anchor="middle" pointer-events="none" x="0" y="0" font-size="10px" fill="#2A2C34" font-family="sans-serif"> Joe</text><text text-anchor="middle" pointer-events="none" x="0" y="10" font-size="10px" fill="#2A2C34" font-family="sans-serif"> Johnston</text></g><g class="node" transform="translate(35.57269764176834,5.445116611898742)"><circle class="outline" cx="0" cy="0" r="25" fill="#57C7E3" stroke="#23b3d7" stroke-width="2px"/><text text-anchor="middle" pointer-events="none" font-family="sans-serif" dy="1.5625" font-size="25" fill="#2A2C34"/><text text-anchor="middle" pointer-events="none" font-family="sans-serif" dy="1.5625" font-size="25" fill="#2A2C34"/><text text-anchor="middle" pointer-events="none" x="0" y="0" font-size="10px" fill="#2A2C34" font-family="sans-serif"> Hugo</text><text text-anchor="middle" pointer-events="none" x="0" y="10" font-size="10px" fill="#2A2C34" font-family="sans-serif"> Weaving</text></g><g class="node" transform="translate(-2.7899689073356737,106.21509447895085)"><circle class="outline" cx="0" cy="0" r="25" fill="#57C7E3" stroke="#23b3d7" stroke-width="2px"/><text text-anchor="middle" pointer-events="none" font-family="sans-serif" dy="1.5625" font-size="25" fill="#2A2C34"/><text text-anchor="middle" pointer-events="none" font-family="sans-serif" dy="1.5625" font-size="25" fill="#2A2C34"/><text text-anchor="middle" pointer-events="none" x="0" y="0" font-size="10px" fill="#2A2C34" font-family="sans-serif"> Chris</text><text text-anchor="middle" pointer-events="none" x="0" y="10" font-size="10px" fill="#2A2C34" font-family="sans-serif"> Evans</text></g><g class="node" transform="translate(54.47102488694016,192.39330499850595)"><circle class="outline" cx="0" cy="0" r="25" fill="#57C7E3" stroke="#23b3d7" stroke-width="2px"/><text text-anchor="middle" pointer-events="none" font-family="sans-serif" dy="1.5625" font-size="25" fill="#2A2C34"/><text text-anchor="middle" pointer-events="none" x="0" y="5" font-size="10px" fill="#2A2C34" font-family="sans-serif"> Christop…</text></g></g></svg>